<svg width="161" height="213" viewBox="0 0 161 213" fill="none" xmlns="http://www.w3.org/2000/svg">
<path d="M136.479 42.5617C130.146 42.5689 124.074 45.088 119.597 49.5664C115.119 54.0448 112.6 60.1167 112.594 66.4497V125.95C112.661 130.208 111.881 134.436 110.298 138.389C108.715 142.342 106.362 145.94 103.375 148.975C100.388 152.01 96.8266 154.42 92.8991 156.065C88.9716 157.71 84.756 158.557 80.498 158.557C76.2399 158.557 72.0244 157.71 68.0969 156.065C64.1694 154.42 60.6084 152.01 57.6214 148.975C54.6343 145.94 52.2809 142.342 50.6981 138.389C49.1153 134.436 48.3348 130.208 48.402 125.95V66.4497C48.402 60.1149 45.8855 54.0395 41.4061 49.5601C36.9267 45.0807 30.8513 42.5642 24.5165 42.5642C18.1817 42.5642 12.1063 45.0807 7.62692 49.5601C3.14752 54.0395 0.631042 60.1149 0.631042 66.4497V132.25C0.631042 142.738 2.69685 153.124 6.71054 162.814C10.7242 172.504 16.6072 181.308 24.0235 188.725C31.4398 196.141 40.2443 202.024 49.9342 206.038C59.6241 210.051 70.0097 212.117 80.498 212.117C90.9863 212.117 101.372 210.051 111.062 206.038C120.752 202.024 129.556 196.141 136.972 188.725C144.389 181.308 150.272 172.504 154.285 162.814C158.299 153.124 160.365 142.738 160.365 132.25V66.4497C160.358 60.1166 157.84 54.0447 153.362 49.5664C148.884 45.088 142.812 42.5689 136.479 42.5617ZM149.915 132.245C149.915 150.656 142.601 168.312 129.583 181.33C116.565 194.348 98.9085 201.662 80.498 201.662C62.0874 201.662 44.431 194.348 31.4128 181.33C18.3946 168.312 11.081 150.656 11.081 132.245V66.4497C11.1116 62.9065 12.5405 59.5188 15.0569 57.024C17.5732 54.5293 20.9731 53.1296 24.5165 53.1296C28.0599 53.1296 31.4598 54.5293 33.9761 57.024C36.4924 59.5188 37.9214 62.9065 37.952 66.4497V125.95C37.952 137.234 42.4345 148.056 50.4134 156.035C58.3923 164.014 69.2141 168.496 80.498 168.496C91.7819 168.496 102.604 164.014 110.583 156.035C118.561 148.056 123.044 137.234 123.044 125.95V66.4497C123.044 62.8864 124.459 59.469 126.979 56.9494C129.499 54.4297 132.916 53.0142 136.479 53.0142C140.043 53.0142 143.46 54.4297 145.98 56.9494C148.499 59.469 149.915 62.8864 149.915 66.4497V132.245Z" fill="url(#paint0_linear_103_26)"/>
<path d="M75.273 54.7397V123.624C75.273 125.01 75.8235 126.339 76.8034 127.319C77.7832 128.299 79.1122 128.849 80.498 128.849C81.8837 128.849 83.2127 128.299 84.1926 127.319C85.1725 126.339 85.723 125.01 85.723 123.624V54.7397C92.4691 53.4399 98.4885 49.6723 102.606 44.1727C106.723 38.673 108.643 31.8362 107.99 24.9971C107.337 18.158 104.159 11.8079 99.0752 7.18649C93.9916 2.56514 87.3681 0.00444982 80.498 0.00444982C73.6278 0.00444982 67.0043 2.56514 61.9208 7.18649C56.8373 11.8079 53.6588 18.158 53.006 24.9971C52.3531 31.8362 54.2728 38.673 58.3902 44.1727C62.5075 49.6723 68.5269 53.4399 75.273 54.7397ZM80.498 10.4657C83.8935 10.4657 87.2128 11.4726 90.0361 13.3591C92.8594 15.2456 95.0599 17.9269 96.3592 21.064C97.6586 24.2011 97.9986 27.6531 97.3361 30.9834C96.6735 34.3137 95.0383 37.3727 92.6372 39.7737C90.2361 42.1746 87.177 43.8096 83.8467 44.4719C80.5163 45.1343 77.0644 44.7941 73.9274 43.4946C70.7904 42.195 68.1092 39.9944 66.2228 37.171C64.3365 34.3476 63.3298 31.0283 63.33 27.6327C63.3353 23.0812 65.1458 18.7176 68.3643 15.4993C71.5828 12.281 75.9465 10.4707 80.498 10.4657Z" fill="url(#paint1_linear_103_26)"/>
<defs>
<linearGradient id="paint0_linear_103_26" x1="0.631042" y1="127.34" x2="160.365" y2="127.34" gradientUnits="userSpaceOnUse">
<stop stop-color="#EC441E"/>
<stop offset="1" stop-color="#EE2A4A"/>
</linearGradient>
<linearGradient id="paint1_linear_103_26" x1="52.8809" y1="64.4266" x2="108.115" y2="64.4266" gradientUnits="userSpaceOnUse">
<stop stop-color="#EC441E"/>
<stop offset="1" stop-color="#EE2A4A"/>
</linearGradient>
</defs>
</svg>
